<svg xmlns="http://www.w3.org/2000/svg" width="44" height="38" viewBox="0 0 44 38" xmlns:xlink="http://www.w3.org/1999/xlink"><defs><path id="a" d="M0 4.004A4.004 4.004 0 0 1 4.002 0h35.996A4 4 0 0 1 44 4.004v23.992A4.004 4.004 0 0 1 39.998 32H4.002A4 4 0 0 1 0 27.996V4.004z"/><mask id="b" width="44" height="32" x="0" y="0" fill="#fff"><use xlink:href="#a"/></mask></defs><g fill="none" fill-rule="evenodd"><use stroke="#02B3E4" stroke-width="4" mask="url(#b)" xlink:href="#a"/><path stroke="#02B3E4" stroke-width="2" stroke-linejoin="round" d="M15.4 31h13.2l2.4 6H13z"/><path stroke="#02B3E4" stroke-width="2" d="M1 22h42" stroke-linecap="square"/><path stroke="#02B3E4" stroke-width="2" d="M8.881 15.917c-.486.249-.881.005-.881-.552v-6.73c0-.554.4-.797.881-.551l6.774 3.465c.487.25.48.656 0 .902L8.88 15.917z"/><path stroke="#02B3E4" stroke-width="2" d="M21.964 12h14" stroke-linecap="round"/><ellipse cx="32" cy="12" fill="#02B3E4" rx="3" ry="3"/></g></svg>